<?xml version="1.0" encoding="UTF-8" standalone="no"?>
<svg width="100%" height="100%" viewBox="0 0 2250 2250" xmlns="http://www.w3.org/2000/svg" xml:space="preserve" style="fill-rule:evenodd;clip-rule:evenodd;stroke-linejoin:round;stroke-miterlimit:2;">
    <defs><style>.curve-1{fill:#FE7E6D}</style></defs>
    <g transform="matrix(2.08333,0,0,2.08333,0,0)">
        <path class="curve-1" d="M-0,594.978L-0,485.022C5.544,430.159 19.293,377.705 40,328.906L40,751.094C19.293,702.295 5.544,649.841 -0,594.978Z" />
        <path class="curve-1" d="M148.571,915.29L148.571,164.71C161.261,151.525 174.612,138.981 188.571,127.131L188.571,952.869C174.612,941.019 161.261,928.475 148.571,915.29Z" />
        <path class="curve-1" d="M297.143,1024.6L297.143,55.402C310.186,48.885 323.528,42.878 337.143,37.409L337.143,1042.59C323.528,1037.12 310.186,1031.12 297.143,1024.6Z" />
        <path class="curve-1" d="M445.714,1073.43L445.714,6.574C458.891,4.292 472.231,2.486 485.714,1.176L485.714,1078.82C472.231,1077.51 458.891,1075.71 445.714,1073.43Z" />
        <path class="curve-1" d="M594.286,1078.55L594.286,1.451C607.771,2.831 621.111,4.707 634.286,7.06L634.286,1072.94C621.111,1075.29 607.771,1077.17 594.286,1078.55Z" />
        <path class="curve-1" d="M742.857,1041.47L742.857,38.528C756.476,44.086 769.818,50.183 782.857,56.793L782.857,1023.21C769.818,1029.82 756.476,1035.91 742.857,1041.47Z" />
        <path class="curve-1" d="M891.429,950.508L891.429,129.492C905.4,141.513 918.751,154.235 931.429,167.601L931.429,912.399C918.751,925.765 905.4,938.487 891.429,950.508Z" />
        <path class="curve-1" d="M1040,744.461L1040,335.539C1065.79,398.637 1080,467.671 1080,540C1080,612.329 1065.79,681.363 1040,744.461Z" />
    </g>
</svg>
