<?xml version="1.0" encoding="UTF-8" standalone="no"?>
<svg width="100%" height="100%" viewBox="0 0 2250 2250" version="1.1" xmlns="http://www.w3.org/2000/svg" xmlns:xlink="http://www.w3.org/1999/xlink" xml:space="preserve" style="fill-rule:evenodd;clip-rule:evenodd;stroke-linejoin:round;stroke-miterlimit:2;">
    <defs><style>.curve-1{fill:#FE7E6D}</style></defs>
    <g transform="matrix(2.08333,0,0,2.08333,0,0)">
        <path class="curve-1" d="M-0,596.36L-0,486.403C5.544,431.541 19.293,379.086 40,330.287L40,752.475C19.293,703.676 5.544,651.222 -0,596.36Z" />
        <path class="curve-1" d="M208,969.99L208,112.773C220.885,102.816 234.231,93.426 248,84.641L248,998.121C234.231,989.337 220.885,979.947 208,969.99Z" />
        <path class="curve-1" d="M416,1068.79L416,13.97C429.157,10.919 442.496,8.347 456,6.276L456,1076.49C442.496,1074.41 429.157,1071.84 416,1068.79Z" />
        <path class="curve-1" d="M624,1076.06L624,6.707C637.505,8.851 650.845,11.494 664,14.618L664,1068.14C650.845,1071.27 637.505,1073.91 624,1076.06Z" />
        <path class="curve-1" d="M832,996.347L832,86.416C845.775,95.322 859.122,104.837 872,114.922L872,967.84C859.122,977.926 845.775,987.441 832,996.347Z" />
        <path class="curve-1" d="M1040,745.842L1040,336.921C1065.79,400.018 1080,469.053 1080,541.381C1080,613.71 1065.79,682.745 1040,745.842Z" />
    </g>
</svg>
