<?xml version="1.0" standalone="no"?>
<!DOCTYPE svg PUBLIC "-//W3C//DTD SVG 20010904//EN"
 "http://www.w3.org/TR/2001/REC-SVG-20010904/DTD/svg10.dtd">
<svg version="1.0" xmlns="http://www.w3.org/2000/svg"
 width="2250.000000pt" height="2250.000000pt" viewBox="0 0 2250.000000 2250.000000"
 preserveAspectRatio="xMidYMid meet">
<metadata>
Created by potrace 1.14, written by Peter Selinger 2001-2017
</metadata>
<g transform="translate(0.000000,2250.000000) scale(0.100000,-0.100000)"
fill="#000000" stroke="none">
<path d="M9970 22459 c-74 -10 -160 -20 -190 -24 -78 -8 -127 -15 -190 -25
-30 -5 -68 -11 -85 -14 -16 -2 -61 -9 -100 -16 -38 -6 -80 -12 -92 -13 -13 -1
-23 -4 -24 -7 -1 -3 -2 -5004 -3 -11113 -1 -11100 -1 -11108 19 -11112 27 -6
200 -33 255 -40 25 -3 70 -10 100 -15 30 -5 84 -12 120 -16 36 -4 127 -14 202
-23 l137 -17 0 11223 c0 6172 -3 11224 -7 11226 -4 2 -68 -5 -142 -14z"/>
<path d="M12380 11250 l0 -11221 38 5 c20 3 62 8 92 11 30 4 66 8 80 10 32 5
91 12 160 20 30 4 107 15 170 25 63 10 131 21 150 24 19 4 58 9 85 12 28 3 52
8 55 11 3 2 5 4999 5 11104 0 9857 -2 11100 -15 11104 -8 2 -35 7 -60 10 -25
3 -67 10 -95 15 -68 12 -307 47 -379 55 -32 4 -68 8 -80 10 -11 2 -48 6 -80
10 -33 3 -74 8 -93 11 l-33 5 0 -11221z"/>
<path d="M6800 21625 c-118 -51 -262 -114 -320 -142 -58 -27 -147 -69 -197
-93 l-93 -43 0 -10097 0 -10097 78 -36 c42 -19 140 -66 217 -102 132 -63 497
-221 525 -227 11 -2 13 1905 14 10455 1 5753 -1 10462 -4 10467 -3 4 -102 -34
-220 -85z"/>
<path d="M15479 21693 c-1 -5 -2 -4705 -3 -10446 0 -6671 2 -10437 9 -10437
16 0 413 175 586 258 90 44 181 87 202 97 l37 17 0 10067 0 10068 -202 97
c-112 54 -285 133 -384 176 -100 43 -195 85 -213 94 -17 9 -31 13 -32 9z"/>
<path d="M3850 19783 c-232 -202 -340 -303 -551 -513 l-206 -205 1 -7818 1
-7819 205 -201 c172 -169 323 -312 411 -387 9 -9 44 -39 76 -67 32 -29 76 -67
98 -87 l40 -35 3 4300 c1 2364 1 6234 0 8598 l-3 4299 -75 -65z"/>
<path d="M18570 11250 l0 -8553 22 19 c56 48 196 174 272 244 219 202 528 512
537 538 3 9 5 3503 5 7764 l-1 7747 -70 72 c-123 124 -378 375 -430 422 -27
25 -66 60 -86 78 -29 28 -77 71 -183 164 -7 6 -24 21 -39 34 l-27 24 0 -8553z"/>
<path d="M786 15532 c-21 -53 -44 -110 -51 -127 -89 -205 -279 -769 -369
-1090 -70 -251 -171 -665 -191 -785 -3 -19 -17 -91 -31 -160 -14 -69 -28 -138
-30 -155 -3 -16 -14 -86 -25 -155 -10 -69 -22 -143 -25 -165 -4 -22 -8 -47 -9
-55 -3 -18 -13 -93 -20 -157 -7 -53 -10 -79 -22 -168 -10 -75 -11 -2438 -1
-2520 5 -33 10 -78 13 -100 3 -22 12 -94 20 -160 9 -66 22 -158 30 -205 14
-88 19 -114 30 -190 4 -25 13 -76 20 -115 8 -38 17 -86 20 -105 3 -19 8 -42
10 -50 2 -8 7 -31 10 -50 49 -294 269 -1108 388 -1435 8 -22 37 -105 66 -185
29 -80 56 -154 61 -165 5 -11 38 -94 74 -185 36 -90 69 -167 74 -172 4 -4 7
1964 7 4372 0 2409 -2 4380 -5 4380 -3 0 -22 -44 -44 -98z"/>
<path d="M21669 15475 c-5 -48 -2 -8472 2 -8467 19 21 163 413 264 717 150
452 305 1051 371 1435 3 14 12 63 20 110 9 47 17 96 19 110 7 46 56 375 60
400 2 14 9 70 15 125 6 55 13 116 15 135 9 77 30 321 40 465 27 375 27 1110 1
1488 -2 26 -7 91 -11 145 -3 53 -8 108 -10 122 -2 14 -7 63 -11 110 -4 47 -8
87 -9 90 -1 3 -5 41 -9 85 -5 44 -9 87 -11 95 -2 8 -8 58 -14 110 -7 52 -16
120 -21 150 -5 30 -12 73 -15 95 -3 22 -7 47 -10 55 -2 8 -6 35 -9 60 -8 57
-14 94 -26 150 -5 25 -17 86 -26 135 -26 148 -36 193 -92 435 -51 215 -91 372
-138 530 -14 47 -32 110 -40 139 -29 107 -185 566 -261 764 -71 189 -92 235
-94 212z"/>
</g>
</svg>
